HIERARCHY
ROOT root
{
	OFFSET 0.000000 0.000000 0.000000
	CHANNELS 6 Xposition Yposition Zposition Zrotation Yrotation Xrotation
	JOINT lhip
	{
		OFFSET 0.058581 -0.082280 -0.017664
		CHANNELS 3 Zrotation Yrotation Xrotation
		JOINT lknee
		{
			OFFSET 0.043451 -0.386469 0.008037
			CHANNELS 3 Zrotation Yrotation Xrotation
			JOINT lankle
			{
				OFFSET -0.014790 -0.426874 -0.037428
				CHANNELS 3 Zrotation Yrotation Xrotation
				JOINT ltoe
				{
					OFFSET 0.041054 -0.060286 0.122042
					CHANNELS 3 Zrotation Yrotation Xrotation
					End Site
					{
						OFFSET 0.000000 0.000000 0.000000
					}
				}
			}
		}
	}
	JOINT rhip
	{
		OFFSET -0.060310 -0.090513 -0.013543
		CHANNELS 3 Zrotation Yrotation Xrotation
		JOINT rknee
		{
			OFFSET -0.043257 -0.383688 -0.004843
			CHANNELS 3 Zrotation Yrotation Xrotation
			JOINT rankle
			{
				OFFSET 0.019056 -0.420046 -0.034562
				CHANNELS 3 Zrotation Yrotation Xrotation
				JOINT rtoe
				{
					OFFSET -0.034840 -0.062106 0.130323
					CHANNELS 3 Zrotation Yrotation Xrotation
					End Site
					{
						OFFSET 0.000000 0.000000 0.000000
					}
				}
			}
		}
	}
	JOINT lowerback
	{
		OFFSET 0.004439 0.124404 -0.038385
		CHANNELS 3 Zrotation Yrotation Xrotation
		JOINT upperback
		{
			OFFSET 0.004488 0.137956 0.026820
			CHANNELS 3 Zrotation Yrotation Xrotation
			JOINT chest
			{
				OFFSET -0.002265 0.056032 0.002855
				CHANNELS 3 Zrotation Yrotation Xrotation
				JOINT lowerneck
				{
					OFFSET -0.013390 0.211636 -0.033468
					CHANNELS 3 Zrotation Yrotation Xrotation
					JOINT upperneck
					{
						OFFSET 0.010113 0.088937 0.050410
						CHANNELS 3 Zrotation Yrotation Xrotation
						End Site
						{
							OFFSET 0.000000 0.000000 0.000000
						}
					}
				}
				JOINT lclavicle
				{
					OFFSET 0.071702 0.114000 -0.018898
					CHANNELS 3 Zrotation Yrotation Xrotation
					JOINT lshoulder
					{
						OFFSET 0.122921 0.045205 -0.019046
						CHANNELS 3 Zrotation Yrotation Xrotation
						JOINT lelbow
						{
							OFFSET 0.255332 -0.015649 -0.022946
							CHANNELS 3 Zrotation Yrotation Xrotation
							JOINT lwrist
							{
								OFFSET 0.265709 0.012698 -0.007375
								CHANNELS 3 Zrotation Yrotation Xrotation
								End Site
								{
									OFFSET 0.000000 0.000000 0.000000
								}
							}
						}
					}
				}
				JOINT rclavicle
				{
					OFFSET -0.082954 0.112472 -0.023707
					CHANNELS 3 Zrotation Yrotation Xrotation
					JOINT rshoulder
					{
						OFFSET -0.113228 0.046853 -0.008472
						CHANNELS 3 Zrotation Yrotation Xrotation
						JOINT relbow
						{
							OFFSET -0.260127 -0.014369 -0.031269
							CHANNELS 3 Zrotation Yrotation Xrotation
							JOINT rwrist
							{
								OFFSET -0.269108 0.006794 -0.006027
								CHANNELS 3 Zrotation Yrotation Xrotation
								End Site
								{
									OFFSET 0.000000 0.000000 0.000000
								}
							}
						}
					}
				}
			}
		}
	}
}
MOTION
Frames: 8
Frame Time: 0.033333
-1.033981 0.832613 0.571972 91.080967 0.214827 50.388207 21.397826 14.291218 -42.209010 -14.453074 10.229964 56.955639 -18.007617 -17.179363 16.161646 0.000000 -0.000000 0.000000 -16.487330 -11.726086 -47.853108 2.495070 -6.781286 65.292930 18.009128 18.113480 14.492636 0.000000 -0.000000 0.000000 1.199411 -2.356191 31.317757 -0.278849 -1.873113 6.271144 1.239184 0.410746 1.047943 -13.098389 1.811955 -16.568796 6.826711 10.913529 -31.458524 -0.730092 5.715440 -0.962052 -64.906991 3.773970 -4.836741 167.179733 -56.239135 -140.139517 -12.802311 -14.222886 -43.161180 -1.010685 -2.611051 6.821438 75.638744 -2.088590 0.981343 179.728067 65.754912 -141.160156 51.431815 2.996120 7.522702 
-1.034149 0.832343 0.571432 91.416676 0.233461 50.652495 21.011118 14.352402 -41.992225 -14.472210 10.156598 56.073985 -17.570911 -16.822733 15.360777 0.000000 -0.000000 0.000000 -16.467843 -11.720323 -48.122560 2.476783 -6.246179 65.540436 18.158162 18.445282 14.257177 0.000000 -0.000000 0.000000 1.269977 -2.050785 31.747589 -0.430176 -1.182155 5.720994 1.239366 0.945350 1.652684 -13.686098 2.766635 -15.103473 6.329575 11.086378 -31.914294 -0.285304 6.630546 -1.356267 -65.569536 3.202551 -4.783885 167.528285 -55.332456 -139.938217 -14.211654 -14.145962 -44.713312 -1.164729 -4.235699 7.503146 76.055781 -3.364135 0.498444 177.726752 64.573562 -143.092898 52.849944 3.626067 5.972428 
-1.032763 0.832783 0.571394 92.500967 0.558608 51.108350 20.421305 13.656343 -42.471855 -13.825956 10.839353 55.764168 -16.917480 -17.067354 14.629613 0.000000 -0.000000 0.000000 -16.942443 -12.702397 -48.317728 1.948463 -6.174706 66.117338 18.672293 19.085485 14.466824 0.000000 -0.000000 0.000000 1.536724 -1.685023 31.279539 -0.344599 -1.236082 5.986132 1.172602 1.264520 1.946739 -14.302146 3.642501 -12.432834 5.826750 11.676093 -32.154144 0.103431 6.918210 -1.357433 -67.141347 1.844995 -4.323295 167.254133 -54.203498 -139.862832 -14.730229 -14.803924 -45.591325 -1.272207 -5.484845 8.431945 76.134892 -4.860023 -0.040609 176.970121 63.564055 -143.864199 54.508961 3.888588 5.875579 
-1.032338 0.832040 0.570872 93.101347 0.633197 51.192069 20.427652 13.389796 -42.537547 -13.964322 11.442413 55.462416 -16.993803 -17.022040 15.013225 0.000000 -0.000000 0.000000 -17.229948 -12.584140 -48.233578 1.996295 -6.038306 66.380321 17.963307 19.031425 13.577041 0.000000 -0.000000 0.000000 1.466339 -1.292417 31.168334 -0.211926 -0.921197 6.522087 1.069402 1.514934 2.489588 -15.015997 4.966016 -11.138407 5.553259 12.001899 -30.734755 0.483818 7.483297 -2.216955 -68.976193 -0.213736 -2.635188 166.884380 -52.795684 -140.004651 -11.727243 -14.181844 -48.658230 -1.204664 -7.100062 8.496492 75.576931 -5.838154 0.092853 175.967108 62.982939 -144.311637 56.008971 3.369358 6.005687 
-1.034578 0.829831 0.570952 92.678761 0.313871 50.678453 20.682132 14.138659 -41.846607 -14.050754 11.452638 55.378322 -17.680073 -16.999077 15.910418 0.000000 -0.000000 0.000000 -16.554126 -11.598886 -48.341449 2.184421 -5.122586 66.588883 18.099050 18.867045 13.722352 0.000000 -0.000000 0.000000 1.033259 -1.121634 32.971266 -0.359899 0.052317 5.854129 1.273972 1.657951 3.504407 -15.866027 6.127718 -11.765982 5.667877 12.398238 -27.617359 0.152189 8.402493 -3.854199 -70.555365 -2.154049 -0.623934 167.013691 -51.077023 -141.021978 -9.475944 -14.296514 -51.689948 -0.854739 -8.240327 7.365328 74.602840 -6.462620 1.015785 176.269343 62.222003 -143.781584 58.493550 1.804351 6.356138 
-1.032165 0.830707 0.569885 94.202069 0.795428 51.382218 20.450689 12.517257 -43.094084 -13.618675 12.791169 55.357361 -17.464494 -17.204562 16.206442 0.000000 -0.000000 0.000000 -17.632284 -12.854751 -48.694005 2.138378 -5.542922 67.124023 18.274938 19.430627 13.874432 0.000000 -0.000000 0.000000 1.316661 -1.090187 31.363941 0.029953 -1.022095 6.687713 0.833472 1.514832 3.911075 -16.197137 7.133231 -9.725519 5.727494 12.988060 -25.387284 0.560278 7.552188 -3.625795 -73.158294 -4.550990 1.547241 166.696527 -49.937676 -141.242201 -8.173913 -14.479763 -53.350097 -0.420366 -8.841049 7.381796 73.411276 -6.033643 1.334236 176.352212 61.971052 -142.997722 61.179542 0.399913 6.885122 
-1.033085 0.829353 0.569647 93.899715 0.538944 51.283580 20.722762 12.767215 -42.742067 -13.348791 13.071735 55.206084 -17.745156 -17.431470 16.638274 0.000000 -0.000000 0.000000 -17.319237 -11.957626 -49.135438 1.637520 -5.288464 67.366112 18.253781 19.378018 14.930385 0.000000 -0.000000 0.000000 0.936305 -1.179389 31.720846 0.025864 -0.952587 6.818359 0.692080 1.769104 4.013968 -15.811790 8.342526 -7.563536 5.281738 13.722302 -23.465805 0.807038 6.168403 -3.854488 -75.232804 -6.311613 3.576464 166.799821 -49.316300 -141.657981 -6.892743 -15.124248 -54.805886 -0.460763 -7.801723 6.944837 73.443702 -5.291746 1.868863 178.632475 61.728662 -139.742348 62.793451 -1.163104 7.480596 
-1.031079 0.829454 0.569633 94.212062 0.485499 51.822921 20.634884 12.336464 -43.132513 -13.301239 13.401812 55.074959 -17.209033 -17.914665 16.204793 0.000000 -0.000000 0.000000 -17.832750 -12.089250 -49.770288 1.165467 -6.012389 67.783971 17.735366 19.009783 14.194413 0.000000 -0.000000 0.000000 0.988731 -1.446245 30.865311 0.120650 -1.544021 7.504058 0.440156 1.349220 3.755500 -15.845630 8.656367 -5.365564 5.406562 14.515992 -22.456005 0.319159 4.707498 -3.896019 -76.541356 -7.607226 5.320629 167.394121 -49.134910 -142.469624 -6.448053 -15.442761 -55.421200 -0.501272 -7.051767 6.651055 73.411978 -3.705046 2.465920 179.734830 61.094103 -137.846234 63.625877 -3.146503 8.342862 
